<mxfile host="app.diagrams.net" agent="Mozilla/5.0 (Windows NT 10.0; Win64; x64) AppleWebKit/537.36 (KHTML, like Gecko) Chrome/136.0.0.0 Safari/537.36" version="27.1.3">
  <diagram name="Страница — 1" id="dSUuZmmSK2Fet1uXvHbJ">
    <mxGraphModel dx="1208" dy="1221" grid="1" gridSize="10" guides="1" tooltips="1" connect="1" arrows="1" fold="1" page="1" pageScale="1" pageWidth="827" pageHeight="1169" math="0" shadow="0">
      <root>
        <mxCell id="0" />
        <mxCell id="1" parent="0" />
        <mxCell id="VxJAB_aPGwrOW1rciI1s-30" style="edgeStyle=orthogonalEdgeStyle;rounded=0;orthogonalLoop=1;jettySize=auto;html=1;" parent="1" source="VxJAB_aPGwrOW1rciI1s-28" target="VxJAB_aPGwrOW1rciI1s-29" edge="1">
          <mxGeometry relative="1" as="geometry" />
        </mxCell>
        <mxCell id="VxJAB_aPGwrOW1rciI1s-28" value="&lt;font style=&quot;background-color: light-dark(#ffffff, var(--ge-dark-color, #121212));&quot;&gt;Начало&lt;/font&gt;&lt;div&gt;&lt;div style=&quot;font-family: Consolas, &amp;quot;Courier New&amp;quot;, monospace; line-height: 19px; white-space: pre;&quot;&gt;&lt;span&gt;&lt;font style=&quot;color: rgb(0, 0, 0);&quot;&gt;check_bort_valid&lt;/font&gt;&lt;/span&gt;&lt;/div&gt;&lt;/div&gt;" style="rounded=1;whiteSpace=wrap;html=1;arcSize=50;fontFamily=Consolas;fontSize=14;" parent="1" vertex="1">
          <mxGeometry x="182" y="150" width="176" height="70" as="geometry" />
        </mxCell>
        <mxCell id="VxJAB_aPGwrOW1rciI1s-32" style="edgeStyle=orthogonalEdgeStyle;rounded=0;orthogonalLoop=1;jettySize=auto;html=1;" parent="1" source="VxJAB_aPGwrOW1rciI1s-29" target="VxJAB_aPGwrOW1rciI1s-31" edge="1">
          <mxGeometry relative="1" as="geometry" />
        </mxCell>
        <mxCell id="VxJAB_aPGwrOW1rciI1s-29" value="&lt;div style=&quot;font-family: Consolas, &amp;quot;Courier New&amp;quot;, monospace; line-height: 19px; white-space: pre;&quot;&gt;&lt;span&gt;&lt;font style=&quot;color: rgb(0, 0, 0);&quot;&gt;Инициализация &lt;/font&gt;&lt;/span&gt;&lt;/div&gt;&lt;div style=&quot;font-family: Consolas, &amp;quot;Courier New&amp;quot;, monospace; line-height: 19px; white-space: pre;&quot;&gt;&lt;span&gt;&lt;font style=&quot;color: rgb(0, 0, 0);&quot;&gt;переменной&lt;/font&gt;&lt;/span&gt;&lt;/div&gt;" style="whiteSpace=wrap;html=1;fontSize=14;fontFamily=Consolas;rounded=1;arcSize=0;" parent="1" vertex="1">
          <mxGeometry x="210" y="255" width="120" height="60" as="geometry" />
        </mxCell>
        <mxCell id="VxJAB_aPGwrOW1rciI1s-34" style="edgeStyle=orthogonalEdgeStyle;rounded=0;orthogonalLoop=1;jettySize=auto;html=1;" parent="1" source="VxJAB_aPGwrOW1rciI1s-31" target="VxJAB_aPGwrOW1rciI1s-33" edge="1">
          <mxGeometry relative="1" as="geometry" />
        </mxCell>
        <mxCell id="rksaekn3JRjUOYoPtaJ5-7" style="edgeStyle=orthogonalEdgeStyle;rounded=0;orthogonalLoop=1;jettySize=auto;html=1;" edge="1" parent="1" source="VxJAB_aPGwrOW1rciI1s-31">
          <mxGeometry relative="1" as="geometry">
            <mxPoint x="270" y="540" as="targetPoint" />
            <Array as="points">
              <mxPoint x="160" y="380" />
              <mxPoint x="160" y="540" />
            </Array>
          </mxGeometry>
        </mxCell>
        <mxCell id="VxJAB_aPGwrOW1rciI1s-31" value="&lt;div style=&quot;font-family: Consolas, &amp;quot;Courier New&amp;quot;, monospace; line-height: 19px; white-space: pre;&quot;&gt;&lt;div style=&quot;line-height: 19px;&quot;&gt;&lt;div style=&quot;line-height: 19px;&quot;&gt;Строка пуста&lt;/div&gt;&lt;/div&gt;&lt;/div&gt;" style="rhombus;whiteSpace=wrap;html=1;rounded=1;strokeColor=default;align=center;verticalAlign=middle;arcSize=0;fontFamily=Consolas;fontSize=14;fontColor=default;fillColor=default;" parent="1" vertex="1">
          <mxGeometry x="194.25" y="342" width="151.5" height="76" as="geometry" />
        </mxCell>
        <mxCell id="rksaekn3JRjUOYoPtaJ5-5" style="edgeStyle=orthogonalEdgeStyle;rounded=0;orthogonalLoop=1;jettySize=auto;html=1;" edge="1" parent="1" source="VxJAB_aPGwrOW1rciI1s-33" target="VxJAB_aPGwrOW1rciI1s-37">
          <mxGeometry relative="1" as="geometry" />
        </mxCell>
        <mxCell id="VxJAB_aPGwrOW1rciI1s-33" value="&lt;div style=&quot;font-family: Consolas, &amp;quot;Courier New&amp;quot;, monospace; line-height: 19px; white-space: pre;&quot;&gt;&lt;div style=&quot;&quot;&gt;Добавляем ошибку &lt;/div&gt;&lt;div style=&quot;&quot;&gt;&quot;&lt;span&gt;&lt;font style=&quot;color: rgb(0, 0, 0);&quot;&gt;Пустое поле&lt;/font&gt;&lt;/span&gt;&lt;span style=&quot;background-color: transparent; color: light-dark(rgb(0, 0, 0), rgb(255, 255, 255));&quot;&gt;&quot;&lt;/span&gt;&lt;br&gt;&lt;/div&gt;&lt;/div&gt;" style="whiteSpace=wrap;html=1;fontSize=14;fontFamily=Consolas;rounded=1;arcSize=0;" parent="1" vertex="1">
          <mxGeometry x="190" y="448" width="160" height="70" as="geometry" />
        </mxCell>
        <mxCell id="VxJAB_aPGwrOW1rciI1s-62" style="edgeStyle=orthogonalEdgeStyle;rounded=0;orthogonalLoop=1;jettySize=auto;html=1;" parent="1" source="VxJAB_aPGwrOW1rciI1s-37" target="VxJAB_aPGwrOW1rciI1s-58" edge="1">
          <mxGeometry relative="1" as="geometry" />
        </mxCell>
        <mxCell id="rksaekn3JRjUOYoPtaJ5-9" style="edgeStyle=orthogonalEdgeStyle;rounded=0;orthogonalLoop=1;jettySize=auto;html=1;" edge="1" parent="1" source="VxJAB_aPGwrOW1rciI1s-37">
          <mxGeometry relative="1" as="geometry">
            <mxPoint x="270" y="730" as="targetPoint" />
            <Array as="points">
              <mxPoint x="160" y="585" />
              <mxPoint x="160" y="730" />
            </Array>
          </mxGeometry>
        </mxCell>
        <mxCell id="VxJAB_aPGwrOW1rciI1s-37" value="&lt;div style=&quot;line-height: 19px; text-wrap-mode: nowrap;&quot;&gt;&lt;div style=&quot;line-height: 19px;&quot;&gt;&lt;div style=&quot;line-height: 19px;&quot;&gt;&lt;div style=&quot;line-height: 19px;&quot;&gt;&lt;font face=&quot;Consolas, Monaco, Andale Mono, Ubuntu Mono, monospace&quot; color=&quot;#333333&quot;&gt;Длина больше&amp;nbsp;&lt;/font&gt;&lt;/div&gt;&lt;div style=&quot;line-height: 19px;&quot;&gt;&lt;font face=&quot;Consolas, Monaco, Andale Mono, Ubuntu Mono, monospace&quot; color=&quot;#333333&quot;&gt;ожидаемой&lt;/font&gt;&lt;/div&gt;&lt;/div&gt;&lt;/div&gt;&lt;/div&gt;" style="rhombus;whiteSpace=wrap;html=1;rounded=1;strokeColor=default;align=center;verticalAlign=middle;arcSize=0;fontFamily=Consolas;fontSize=14;fontColor=default;fillColor=default;" parent="1" vertex="1">
          <mxGeometry x="194.25" y="547" width="151.5" height="76" as="geometry" />
        </mxCell>
        <mxCell id="VxJAB_aPGwrOW1rciI1s-43" value="Нет" style="text;html=1;align=center;verticalAlign=middle;resizable=0;points=[];autosize=1;strokeColor=none;fillColor=none;" parent="1" vertex="1">
          <mxGeometry x="170" y="342" width="40" height="30" as="geometry" />
        </mxCell>
        <mxCell id="VxJAB_aPGwrOW1rciI1s-44" value="Да" style="text;html=1;align=center;verticalAlign=middle;resizable=0;points=[];autosize=1;strokeColor=none;fillColor=none;" parent="1" vertex="1">
          <mxGeometry x="280" y="413" width="40" height="30" as="geometry" />
        </mxCell>
        <mxCell id="VxJAB_aPGwrOW1rciI1s-63" style="edgeStyle=orthogonalEdgeStyle;rounded=0;orthogonalLoop=1;jettySize=auto;html=1;" parent="1" source="VxJAB_aPGwrOW1rciI1s-51" target="VxJAB_aPGwrOW1rciI1s-61" edge="1">
          <mxGeometry relative="1" as="geometry" />
        </mxCell>
        <mxCell id="rksaekn3JRjUOYoPtaJ5-29" style="edgeStyle=orthogonalEdgeStyle;rounded=0;orthogonalLoop=1;jettySize=auto;html=1;" edge="1" parent="1" source="VxJAB_aPGwrOW1rciI1s-51">
          <mxGeometry relative="1" as="geometry">
            <mxPoint x="270" y="930" as="targetPoint" />
            <Array as="points">
              <mxPoint x="166" y="788" />
              <mxPoint x="166" y="930" />
            </Array>
          </mxGeometry>
        </mxCell>
        <mxCell id="VxJAB_aPGwrOW1rciI1s-51" value="&lt;div style=&quot;line-height: 19px; text-wrap-mode: nowrap;&quot;&gt;&lt;div style=&quot;line-height: 19px;&quot;&gt;&lt;div style=&quot;line-height: 19px;&quot;&gt;&lt;font face=&quot;Consolas, Monaco, Andale Mono, Ubuntu Mono, monospace&quot; color=&quot;#333333&quot;&gt;Длина меньше&amp;nbsp;&lt;/font&gt;&lt;/div&gt;&lt;div style=&quot;line-height: 19px;&quot;&gt;&lt;font face=&quot;Consolas, Monaco, Andale Mono, Ubuntu Mono, monospace&quot; color=&quot;#333333&quot;&gt;ожидаемой&lt;/font&gt;&lt;/div&gt;&lt;/div&gt;&lt;/div&gt;" style="rhombus;whiteSpace=wrap;html=1;rounded=1;strokeColor=default;align=center;verticalAlign=middle;arcSize=0;fontFamily=Consolas;fontSize=14;fontColor=default;fillColor=default;" parent="1" vertex="1">
          <mxGeometry x="194.24999999999994" y="750" width="151.5" height="76" as="geometry" />
        </mxCell>
        <mxCell id="VxJAB_aPGwrOW1rciI1s-53" value="Да" style="text;html=1;align=center;verticalAlign=middle;resizable=0;points=[];autosize=1;strokeColor=none;fillColor=none;" parent="1" vertex="1">
          <mxGeometry x="280" y="610" width="40" height="30" as="geometry" />
        </mxCell>
        <mxCell id="VxJAB_aPGwrOW1rciI1s-54" value="Нет" style="text;html=1;align=center;verticalAlign=middle;resizable=0;points=[];autosize=1;strokeColor=none;fillColor=none;" parent="1" vertex="1">
          <mxGeometry x="162.70999999999998" y="547" width="40" height="30" as="geometry" />
        </mxCell>
        <mxCell id="VxJAB_aPGwrOW1rciI1s-55" value="Да" style="text;html=1;align=center;verticalAlign=middle;resizable=0;points=[];autosize=1;strokeColor=none;fillColor=none;" parent="1" vertex="1">
          <mxGeometry x="280" y="823" width="40" height="30" as="geometry" />
        </mxCell>
        <mxCell id="VxJAB_aPGwrOW1rciI1s-56" value="Нет" style="text;html=1;align=center;verticalAlign=middle;resizable=0;points=[];autosize=1;strokeColor=none;fillColor=none;" parent="1" vertex="1">
          <mxGeometry x="170" y="750" width="40" height="30" as="geometry" />
        </mxCell>
        <mxCell id="rksaekn3JRjUOYoPtaJ5-6" style="edgeStyle=orthogonalEdgeStyle;rounded=0;orthogonalLoop=1;jettySize=auto;html=1;" edge="1" parent="1" source="VxJAB_aPGwrOW1rciI1s-58" target="VxJAB_aPGwrOW1rciI1s-51">
          <mxGeometry relative="1" as="geometry" />
        </mxCell>
        <mxCell id="VxJAB_aPGwrOW1rciI1s-58" value="&lt;div style=&quot;font-family: Consolas, &amp;quot;Courier New&amp;quot;, monospace; line-height: 19px; white-space: pre;&quot;&gt;&lt;div style=&quot;&quot;&gt;Добавляем ошибку &lt;/div&gt;&lt;div style=&quot;&quot;&gt;&quot;Слишком длинный&lt;span style=&quot;background-color: transparent; color: light-dark(rgb(0, 0, 0), rgb(255, 255, 255));&quot;&gt;&quot;&lt;/span&gt;&lt;br&gt;&lt;/div&gt;&lt;/div&gt;" style="whiteSpace=wrap;html=1;fontSize=14;fontFamily=Consolas;rounded=1;arcSize=0;" parent="1" vertex="1">
          <mxGeometry x="190" y="650" width="160" height="70" as="geometry" />
        </mxCell>
        <mxCell id="VxJAB_aPGwrOW1rciI1s-61" value="&lt;div style=&quot;font-family: Consolas, &amp;quot;Courier New&amp;quot;, monospace; line-height: 19px; white-space: pre;&quot;&gt;&lt;div style=&quot;&quot;&gt;Добавляем ошибку &lt;/div&gt;&lt;div style=&quot;&quot;&gt;&quot;Слишком короткий&lt;span style=&quot;background-color: transparent; color: light-dark(rgb(0, 0, 0), rgb(255, 255, 255));&quot;&gt;&quot;&lt;/span&gt;&lt;br&gt;&lt;/div&gt;&lt;/div&gt;" style="whiteSpace=wrap;html=1;fontSize=14;fontFamily=Consolas;rounded=1;arcSize=0;" parent="1" vertex="1">
          <mxGeometry x="189.99999999999994" y="853" width="160" height="70" as="geometry" />
        </mxCell>
        <mxCell id="rksaekn3JRjUOYoPtaJ5-11" style="edgeStyle=orthogonalEdgeStyle;rounded=0;orthogonalLoop=1;jettySize=auto;html=1;" edge="1" parent="1" source="VxJAB_aPGwrOW1rciI1s-71" target="VxJAB_aPGwrOW1rciI1s-89">
          <mxGeometry relative="1" as="geometry" />
        </mxCell>
        <mxCell id="rksaekn3JRjUOYoPtaJ5-18" style="edgeStyle=orthogonalEdgeStyle;rounded=0;orthogonalLoop=1;jettySize=auto;html=1;" edge="1" parent="1" source="VxJAB_aPGwrOW1rciI1s-71">
          <mxGeometry relative="1" as="geometry">
            <mxPoint x="591.5" y="722" as="targetPoint" />
            <Array as="points">
              <mxPoint x="490" y="573" />
              <mxPoint x="490" y="722" />
            </Array>
          </mxGeometry>
        </mxCell>
        <mxCell id="VxJAB_aPGwrOW1rciI1s-71" value="&lt;div style=&quot;line-height: 19px; white-space: pre;&quot;&gt;&lt;div style=&quot;line-height: 19px;&quot;&gt;&lt;div style=&quot;line-height: 19px;&quot;&gt;&lt;div style=&quot;font-family: Consolas, &amp;quot;Courier New&amp;quot;, monospace; line-height: 19px;&quot;&gt;&lt;span&gt;&lt;font style=&quot;color: rgb(0, 0, 0);&quot;&gt;bort[1] != &#39;-&#39;&lt;/font&gt;&lt;/span&gt;&lt;/div&gt;&lt;/div&gt;&lt;/div&gt;&lt;/div&gt;" style="rhombus;whiteSpace=wrap;html=1;rounded=1;strokeColor=default;align=center;verticalAlign=middle;arcSize=0;fontFamily=Consolas;fontSize=14;fontColor=default;fillColor=default;" parent="1" vertex="1">
          <mxGeometry x="515.75" y="535" width="151.5" height="76" as="geometry" />
        </mxCell>
        <mxCell id="rksaekn3JRjUOYoPtaJ5-24" style="edgeStyle=orthogonalEdgeStyle;rounded=0;orthogonalLoop=1;jettySize=auto;html=1;" edge="1" parent="1" source="VxJAB_aPGwrOW1rciI1s-72" target="VxJAB_aPGwrOW1rciI1s-90">
          <mxGeometry relative="1" as="geometry" />
        </mxCell>
        <mxCell id="rksaekn3JRjUOYoPtaJ5-25" style="edgeStyle=orthogonalEdgeStyle;rounded=0;orthogonalLoop=1;jettySize=auto;html=1;" edge="1" parent="1" source="VxJAB_aPGwrOW1rciI1s-72">
          <mxGeometry relative="1" as="geometry">
            <mxPoint x="590.6100000000001" y="922" as="targetPoint" />
            <Array as="points">
              <mxPoint x="490" y="770" />
              <mxPoint x="490" y="922" />
            </Array>
          </mxGeometry>
        </mxCell>
        <mxCell id="VxJAB_aPGwrOW1rciI1s-72" value="&lt;div style=&quot;line-height: 19px; white-space: pre;&quot;&gt;&lt;div style=&quot;line-height: 19px;&quot;&gt;&lt;div style=&quot;line-height: 19px;&quot;&gt;&lt;div style=&quot;font-family: Consolas, &amp;quot;Courier New&amp;quot;, monospace; line-height: 19px;&quot;&gt;Один из символов &lt;/div&gt;&lt;div style=&quot;font-family: Consolas, &amp;quot;Courier New&amp;quot;, monospace; line-height: 19px;&quot;&gt;после не цифра?&lt;/div&gt;&lt;/div&gt;&lt;/div&gt;&lt;/div&gt;" style="rhombus;whiteSpace=wrap;html=1;rounded=1;strokeColor=default;align=center;verticalAlign=middle;arcSize=0;fontFamily=Consolas;fontSize=14;fontColor=default;fillColor=default;" parent="1" vertex="1">
          <mxGeometry x="514.8600000000001" y="732" width="151.5" height="76" as="geometry" />
        </mxCell>
        <mxCell id="rksaekn3JRjUOYoPtaJ5-14" style="edgeStyle=orthogonalEdgeStyle;rounded=0;orthogonalLoop=1;jettySize=auto;html=1;" edge="1" parent="1" source="VxJAB_aPGwrOW1rciI1s-86" target="rksaekn3JRjUOYoPtaJ5-13">
          <mxGeometry relative="1" as="geometry" />
        </mxCell>
        <mxCell id="VxJAB_aPGwrOW1rciI1s-86" value="1" style="ellipse;whiteSpace=wrap;html=1;fontSize=14;fontFamily=Consolas;rounded=1;arcSize=0;" parent="1" vertex="1">
          <mxGeometry x="570" y="290" width="41.21" height="40" as="geometry" />
        </mxCell>
        <mxCell id="rksaekn3JRjUOYoPtaJ5-19" style="edgeStyle=orthogonalEdgeStyle;rounded=0;orthogonalLoop=1;jettySize=auto;html=1;" edge="1" parent="1" source="VxJAB_aPGwrOW1rciI1s-89" target="VxJAB_aPGwrOW1rciI1s-72">
          <mxGeometry relative="1" as="geometry" />
        </mxCell>
        <mxCell id="VxJAB_aPGwrOW1rciI1s-89" value="&lt;div style=&quot;font-family: Consolas, &amp;quot;Courier New&amp;quot;, monospace; line-height: 19px; white-space: pre;&quot;&gt;&lt;div style=&quot;&quot;&gt;Добавляем ошибку &lt;/div&gt;&lt;div style=&quot;&quot;&gt;&quot;&lt;font style=&quot;color: rgb(0, 0, 0);&quot;&gt;Вторым символом &lt;/font&gt;&lt;/div&gt;&lt;div style=&quot;&quot;&gt;&lt;span style=&quot;background-color: transparent; color: light-dark(rgb(0, 0, 0), rgb(255, 255, 255));&quot;&gt;должен быть &#39;-&#39;&quot;&lt;/span&gt;&lt;br&gt;&lt;/div&gt;&lt;/div&gt;" style="whiteSpace=wrap;html=1;fontSize=14;fontFamily=Consolas;rounded=1;arcSize=0;" parent="1" vertex="1">
          <mxGeometry x="511.5" y="640" width="160" height="70" as="geometry" />
        </mxCell>
        <mxCell id="rksaekn3JRjUOYoPtaJ5-27" style="edgeStyle=orthogonalEdgeStyle;rounded=0;orthogonalLoop=1;jettySize=auto;html=1;" edge="1" parent="1" source="VxJAB_aPGwrOW1rciI1s-90" target="VxJAB_aPGwrOW1rciI1s-35">
          <mxGeometry relative="1" as="geometry" />
        </mxCell>
        <mxCell id="VxJAB_aPGwrOW1rciI1s-90" value="&lt;div style=&quot;font-family: Consolas, &amp;quot;Courier New&amp;quot;, monospace; line-height: 19px; white-space: pre;&quot;&gt;&lt;div style=&quot;&quot;&gt;Добавляем ошибку &lt;/div&gt;&lt;div style=&quot;&quot;&gt;&quot;&lt;span&gt;&lt;font style=&quot;color: rgb(0, 0, 0);&quot;&gt;Недопустимый символ&quot;&lt;/font&gt;&lt;/span&gt;&lt;/div&gt;&lt;/div&gt;" style="whiteSpace=wrap;html=1;fontSize=14;fontFamily=Consolas;rounded=1;arcSize=0;" parent="1" vertex="1">
          <mxGeometry x="510.6100000000001" y="833" width="160" height="70" as="geometry" />
        </mxCell>
        <mxCell id="VxJAB_aPGwrOW1rciI1s-100" value="Нет" style="text;html=1;align=center;verticalAlign=middle;resizable=0;points=[];autosize=1;strokeColor=none;fillColor=none;" parent="1" vertex="1">
          <mxGeometry x="490" y="535" width="40" height="30" as="geometry" />
        </mxCell>
        <mxCell id="VxJAB_aPGwrOW1rciI1s-101" value="Да" style="text;html=1;align=center;verticalAlign=middle;resizable=0;points=[];autosize=1;strokeColor=none;fillColor=none;" parent="1" vertex="1">
          <mxGeometry x="605.6100000000001" y="795" width="40" height="30" as="geometry" />
        </mxCell>
        <mxCell id="VxJAB_aPGwrOW1rciI1s-102" value="Нет" style="text;html=1;align=center;verticalAlign=middle;resizable=0;points=[];autosize=1;strokeColor=none;fillColor=none;" parent="1" vertex="1">
          <mxGeometry x="490" y="732" width="40" height="30" as="geometry" />
        </mxCell>
        <mxCell id="VxJAB_aPGwrOW1rciI1s-103" value="Да" style="text;html=1;align=center;verticalAlign=middle;resizable=0;points=[];autosize=1;strokeColor=none;fillColor=none;" parent="1" vertex="1">
          <mxGeometry x="605.6100000000001" y="602" width="40" height="30" as="geometry" />
        </mxCell>
        <mxCell id="rksaekn3JRjUOYoPtaJ5-10" value="" style="edgeStyle=orthogonalEdgeStyle;rounded=0;orthogonalLoop=1;jettySize=auto;html=1;" edge="1" parent="1" source="VxJAB_aPGwrOW1rciI1s-61" target="VxJAB_aPGwrOW1rciI1s-82">
          <mxGeometry relative="1" as="geometry">
            <mxPoint x="269.99999999999994" y="978" as="targetPoint" />
            <mxPoint x="270" y="923" as="sourcePoint" />
          </mxGeometry>
        </mxCell>
        <mxCell id="VxJAB_aPGwrOW1rciI1s-82" value="1" style="ellipse;whiteSpace=wrap;html=1;fontSize=14;fontFamily=Consolas;rounded=1;arcSize=0;" parent="1" vertex="1">
          <mxGeometry x="249.39999999999998" y="940" width="41.21" height="40" as="geometry" />
        </mxCell>
        <mxCell id="rksaekn3JRjUOYoPtaJ5-17" style="edgeStyle=orthogonalEdgeStyle;rounded=0;orthogonalLoop=1;jettySize=auto;html=1;" edge="1" parent="1" source="rksaekn3JRjUOYoPtaJ5-12" target="VxJAB_aPGwrOW1rciI1s-71">
          <mxGeometry relative="1" as="geometry" />
        </mxCell>
        <mxCell id="rksaekn3JRjUOYoPtaJ5-12" value="&lt;div style=&quot;font-family: Consolas, &amp;quot;Courier New&amp;quot;, monospace; line-height: 19px; white-space: pre;&quot;&gt;&lt;div style=&quot;&quot;&gt;Добавляем ошибку &lt;/div&gt;&lt;div style=&quot;&quot;&gt;&quot;&lt;font style=&quot;color: rgb(0, 0, 0);&quot;&gt;Первым символом должна &lt;/font&gt;&lt;/div&gt;&lt;div style=&quot;&quot;&gt;&lt;font style=&quot;color: rgb(0, 0, 0);&quot;&gt;быть заглавная буква &lt;/font&gt;&lt;/div&gt;&lt;div style=&quot;&quot;&gt;&lt;font style=&quot;color: rgb(0, 0, 0);&quot;&gt;A-Z&lt;/font&gt;&lt;span style=&quot;background-color: transparent; color: light-dark(rgb(0, 0, 0), rgb(255, 255, 255));&quot;&gt;&quot;&lt;/span&gt;&lt;br&gt;&lt;/div&gt;&lt;/div&gt;" style="whiteSpace=wrap;html=1;fontSize=14;fontFamily=Consolas;rounded=1;arcSize=0;" vertex="1" parent="1">
          <mxGeometry x="510.6100000000001" y="440" width="160" height="70" as="geometry" />
        </mxCell>
        <mxCell id="rksaekn3JRjUOYoPtaJ5-15" style="edgeStyle=orthogonalEdgeStyle;rounded=0;orthogonalLoop=1;jettySize=auto;html=1;" edge="1" parent="1" source="rksaekn3JRjUOYoPtaJ5-13" target="rksaekn3JRjUOYoPtaJ5-12">
          <mxGeometry relative="1" as="geometry" />
        </mxCell>
        <mxCell id="rksaekn3JRjUOYoPtaJ5-16" style="edgeStyle=orthogonalEdgeStyle;rounded=0;orthogonalLoop=1;jettySize=auto;html=1;" edge="1" parent="1" source="rksaekn3JRjUOYoPtaJ5-13">
          <mxGeometry relative="1" as="geometry">
            <mxPoint x="590.6100000000001" y="522" as="targetPoint" />
            <Array as="points">
              <mxPoint x="490" y="386" />
              <mxPoint x="490" y="522" />
            </Array>
          </mxGeometry>
        </mxCell>
        <mxCell id="rksaekn3JRjUOYoPtaJ5-13" value="&lt;div style=&quot;line-height: 19px; white-space: pre;&quot;&gt;&lt;div style=&quot;line-height: 19px;&quot;&gt;&lt;div style=&quot;line-height: 19px;&quot;&gt;&lt;div style=&quot;font-family: Consolas, &amp;quot;Courier New&amp;quot;, monospace; line-height: 19px;&quot;&gt;&lt;span&gt;&lt;font style=&quot;color: rgb(0, 0, 0);&quot;&gt;bort[0] &amp;lt; &#39;A&#39;&lt;/font&gt;&lt;/span&gt;&lt;/div&gt;&lt;div style=&quot;font-family: Consolas, &amp;quot;Courier New&amp;quot;, monospace; line-height: 19px;&quot;&gt;&lt;span&gt;&lt;font style=&quot;color: rgb(0, 0, 0);&quot;&gt;bort[0] &amp;gt; &#39;Z&#39;&lt;/font&gt;&lt;/span&gt;&lt;/div&gt;&lt;/div&gt;&lt;/div&gt;&lt;/div&gt;" style="rhombus;whiteSpace=wrap;html=1;rounded=1;strokeColor=default;align=center;verticalAlign=middle;arcSize=0;fontFamily=Consolas;fontSize=14;fontColor=default;fillColor=default;" vertex="1" parent="1">
          <mxGeometry x="514.8600000000001" y="348" width="151.5" height="76" as="geometry" />
        </mxCell>
        <mxCell id="rksaekn3JRjUOYoPtaJ5-20" value="Нет" style="text;html=1;align=center;verticalAlign=middle;resizable=0;points=[];autosize=1;strokeColor=none;fillColor=none;" vertex="1" parent="1">
          <mxGeometry x="490" y="347" width="40" height="30" as="geometry" />
        </mxCell>
        <mxCell id="rksaekn3JRjUOYoPtaJ5-23" value="Да" style="text;html=1;align=center;verticalAlign=middle;resizable=0;points=[];autosize=1;strokeColor=none;fillColor=none;" vertex="1" parent="1">
          <mxGeometry x="611.21" y="404" width="40" height="30" as="geometry" />
        </mxCell>
        <mxCell id="VxJAB_aPGwrOW1rciI1s-35" value="конец" style="whiteSpace=wrap;html=1;fontSize=14;fontFamily=Consolas;rounded=1;arcSize=50;" parent="1" vertex="1">
          <mxGeometry x="531.5" y="945" width="120" height="60" as="geometry" />
        </mxCell>
      </root>
    </mxGraphModel>
  </diagram>
</mxfile>
